# xmcd
#
# Track frame offsets: 
#        150
#        31563
#        58407
#        76813
#        102066
#        130372
#        149644
#
# Disc length: 2521 seconds
#
# Revision: 3
# Processed by: cddbd v1.5.2PL0 Copyright (c) Steve Scherf et al.
# Submitted via: ExactAudioCopy v1.3
#
DISCID=5a09d707
DTITLE=Guru Guru - 2000 Gurus
DYEAR=2000
DGENRE=Progressive Rock
TTITLE0=2000 Gurus (all later)
TTITLE1=Galactic Human
TTITLE2=Tribes And Vibes
TTITLE3=Night Birds
TTITLE4=Marabut
TTITLE5=Das Glück
TTITLE6=Blue Space
EXTD=
EXTT0=
EXTT1=
EXTT2=
EXTT3=
EXTT4=
EXTT5=
EXTT6=
PLAYORDER=
